# xmcd
#
# Track frame offsets:
#	150
#	16145
#	28287
#	35317
#	46822
#	57562
#	68382
#	76095
#	82057
#	91217
#	95985
#	102692
#	107940
#	121532
#	125372
#	133065
#
# Disc length: 1913 seconds
#
# Revision: 0
# Processed by: cddbd v1.5.1PL0 Copyright (c) Steve Scherf et al.
# Submitted via: audiograbber 1.81.02
#
DISCID=d1077710
DTITLE=Tim Thomas und Olaf Franke - Mit Freddy durch die Bibel 2 - Ein Bad für 
DTITLE=den General (www.gerth.de)
DYEAR=2005
DGENRE=Musical
TTITLE0=Das Bobelbabelbibelbuch
TTITLE1=Der Mundscheck klopft und klopft
TTITLE2=Keine Angst
TTITLE3=Freddy klärt Eugen auf
TTITLE4=Naemann bekommt Hoffnung
TTITLE5=Die Soldaten des General maschieren
TTITLE6=Die Hauptmänner diskutieren
TTITLE7=Eugen will weiter erzählen
TTITLE8=Syrerführer-Chor
TTITLE9=Chor der Entrüstung
TTITLE10=Wo bleibt der Prophet?
TTITLE11=Marschieren-Marschieren-reprise
TTITLE12=Die Hauptmänner streiten sich
TTITLE13=Marschieren-Marschieren-reprise
TTITLE14=Der General taucht
TTITLE15=Naemann wird geheilt
EXTD=
EXTT0=
EXTT1=
EXTT2=
EXTT3=
EXTT4=
EXTT5=
EXTT6=
EXTT7=
EXTT8=
EXTT9=
EXTT10=
EXTT11=
EXTT12=
EXTT13=
EXTT14=
EXTT15=
PLAYORDER=
